<svg id="Single_Group_Layer" data-name="Single Group Layer" xmlns="http://www.w3.org/2000/svg" viewBox="0 0 794.36 1288.68"><defs><style>.cls-1{fill:#606060;}.cls-2{fill:#adadad;}</style></defs><title>Mansell Street - Diagram (Existing) WIP</title><path id="IV" class="cls-1" d="M132.2,1342.79l-23,3.86-9.38-54.12,19.58-3.41c61.94-11.81,124.94-23.18,185.87-34.18,49.91-9,101.53-18.33,152.26-27.83l12.31-2,2.49,14.69,22.84-5,53.2-10,49.89-9.15,9.74-1.94,27.68-5.27,6.28,32.52,5.29,27,6.8,35.08-38.66,8.1,3.33,13.86-102.53,20.14-47.44,9.55-.83.15-2.85-15.91-59.23,11c-47.41,9.36-95.64,18.37-142.28,27.07-38.89,7.26-79.11,14.77-118.62,22.45l-3.09.54Z" transform="translate(-99.82 -111.2)"/><polygon id="GE" class="cls-1" points="657.22 1158.83 646.66 1160.1 646.5 1160.01 636.16 1154.41 634.96 1147.22 638.04 1142.74 643.23 1135.63 652.34 1133.39 646.47 1104.99 637.96 1106.89 628.8 1056.19 618.03 1003.9 609.1 954.45 598.59 901.7 695.86 883.91 700.61 882.96 716.98 972.6 734.77 1068.18 739.42 1093.19 759.68 1090 763.17 1089.47 775.59 1086.76 794.36 1185.04 777.93 1188.75 745.49 1195.62 710.64 1201.18 667.79 1206.27 666.31 1206.54 657.22 1158.83"/><polygon id="GD" class="cls-1" points="530.82 852.17 521.57 801.74 511.62 749.95 514.38 749.4 525 747.46 563.36 739.34 659.41 722.01 661.14 729.76 659.79 730.07 614.74 739.71 640.04 875.3 672.37 869.07 687.21 866.53 689 875 591.79 892.78 554.28 899.59 543.57 901.55 539.96 902.31 530.82 852.17"/><polygon id="GC" class="cls-1" points="557.76 685.96 548.4 628.78 537.11 577.82 527.15 520.38 503.97 523.75 495.28 479.13 568.66 466.07 585.53 462.72 635.27 452.64 642.09 489.06 644.58 499.39 626.7 503.41 653.07 638.5 669.74 709.57 662.22 711.34 566.33 728.64 557.76 685.96"/><polygon id="GB" class="cls-1" points="450.1 425.69 439.12 372.29 429.77 320 420.31 269.18 423.11 268.67 432.7 266.73 470.16 260.03 572.87 241.68 575.74 256.4 565.35 258.32 525.85 265.53 557.08 430.38 561.88 457.13 488.53 470.18 462.56 474.45 459.34 475.06 450.1 425.69"/><polygon id="GA" class="cls-1" points="464.54 201.84 453.54 147.97 443.69 95.19 433.76 43.49 437.05 42.88 524.44 27.7 521.6 10.84 584.87 0 588.75 19.68 561.95 24.92 541.7 28.68 560.64 128.15 564.7 149.41 576.3 207.59 580.64 230.03 575.9 230.98 473.29 249.31 464.54 201.84"/><g id="Existing_Homes" data-name="Existing Homes"><polygon class="cls-2" points="552.93 1132.78 634.98 1117.81 638.75 1117.03 640.6 1125.98 637.3 1126.79 631.08 1135.32 556.28 1149.85 552.93 1132.78"/></g></svg>