<?xml version="1.0" encoding="utf-8"?>
<!-- Generator: Adobe Illustrator 22.1.0, SVG Export Plug-In . SVG Version: 6.00 Build 0)  -->
<svg version="1.1" id="Single_Group_Layer" xmlns="http://www.w3.org/2000/svg" xmlns:xlink="http://www.w3.org/1999/xlink" x="0px"
	 y="0px" viewBox="0 0 1312 1080" enable-background="new 0 0 1312 1080" xml:space="preserve">
<path id="C8" fill="#C1C1C1" d="M79.3,832.2l11.6,3.8l132.4,43.6l112.9-342.5l-144-47.5l-3.2,9.8l-0.8,2.4l-2.4-0.8l-11-3.6
	L161.4,538l11,3.8l0.1,0l0.1,0l2.2,0.9l-0.7,2.2l-16.9,51.4l-0.8,2.4l-2.4-0.8l-11.1-3.6l-8.8,27l11,3.6l2.4,0.8l-0.8,2.4l-0.6,1.8
	l-0.8,2.4l-2.4-0.8l-11-3.6l-9,27l11,3.6l0,0l0.1,0l2.3,0.8l-0.8,2.4L97.4,777.3l-0.8,2.4l-2.4-0.8l-10.9-3.8l-13.4,40.6l11,3.6
	l2.4,0.8l-0.8,2.4L79.3,832.2z"/>
<path id="C7" fill="#C1C1C1" d="M195,485.4l145.1,47.8l12.4,4.1l19.4-58.9l0.8-2.3l2.4,0.7l11.1,3.6l9-27l-11.2-3.6l-2.4-0.8
	l0.8-2.4l0.6-1.8l0.8-2.4l2.4,0.8l11.2,3.6l8.8-27.1l-11.1-3.8l0,0l0,0l-2.2-0.9l0.7-2.3l13.8-41.8l0.8-2.4l2.4,0.8l11,3.6l9-27.1
	l-11-3.8l-2.3-0.8l0.7-2.4l0.6-1.8l0.8-2.4l2.4,0.8l0,0l0.1,0l11,3.8l8.8-27.2l-11-3.6l-2.4-0.8l0.8-2.4l9.5-29.1L294.5,229
	l-10.1,30.6l-0.8,2.4l-2.4-0.8l-11-3.6l-3.6,10.8l-5.4,16.2l11,3.6l2.4,0.8l-0.7,2.4L255,348.9l-0.8,2.4l-2.4-0.8l-11.1-3.6l-8.8,27
	l11,3.6l2.4,0.8l-0.8,2.4l-21.7,66l-0.8,2.4l-2.4-0.8l-11.1-3.6L195,485.4z"/>
<polygon id="C4" fill="#C1C1C1" points="928.2,883.3 950.8,814.8 975.6,822.9 976.8,819.2 980.8,806.9 998.8,812.8 1027.2,801.2 
	1001.2,737.4 1179.3,664.9 1204,725.6 1222.4,718 1228.8,733.8 1265,719 1293.9,790.1 1004.1,908.3 "/>
<polygon id="C3" fill="#C1C1C1" points="682.1,802.1 687.5,785.9 660.1,776.9 660.8,774.8 682.9,708.6 710.4,717.7 732.4,651.1 
	996,737.8 1020.7,798.5 998.6,807.5 977.7,800.6 972.4,816.6 951.3,809.7 947.6,808.5 923.5,881.7 "/>
<polygon id="C2" fill="#C1C1C1" points="474.1,715.6 558.7,459 709.9,508.9 669.8,630.4 727.7,649.5 707.2,711.4 679.7,702.3 
	656.1,773.2 655.4,775.3 "/>
<polygon id="C1" fill="#C1C1C1" points="560.2,454.2 602.4,326.1 680.7,289.4 583.6,82.8 719.9,18.8 754.5,90.2 713,109.9 
	693.6,119 763.5,269.2 781.1,261 815.7,334.5 758.6,361.3 711.5,504.1 "/>
<g id="Proposed_Homes">
	<path fill="#E8E8E8" d="M291.3,222.7l2.4,0.8l143.4,47.3l-45.3-96.1l-137.9,64.8l10.1,21.4l2.4-7.2l0.8-2.4l2.4,0.8l11,3.6
		l10.1-30.6L291.3,222.7z"/>
	<path fill="#E8E8E8" d="M228,881.3l10.2,3.4l112.1-340.3l0.7-2.3l-10.1-3.3L228,881.3z"/>
	<path fill="#E8E8E8" d="M700.2,121.4l65.7,141.1l13.1-6.2l-66.1-140.9L700.2,121.4z"/>
	<polygon fill="#E8E8E8" points="91.7,841.6 236.6,889.4 181.6,1060.9 21,1061.5 	"/>
</g>
</svg>
